#!OML:ASF F:\VICON\USERDATA\INSTALL\rory3\rory3.ASF
:FULLY-SPECIFIED
:DEGREES
55
root 0.37221838922161626 18.272813905271253 7.774213472793944 -1.5681764343581186 1.5289123800092832 -1.6758556729387124
lfemur -19.29595325221997 8.382508900373638 -16.41391812288954
ltibia 33.33567698628293
lfoot -0.3718968429527916 0.33941056122977464
ltoes -9.046161921512077
rfemur -18.33490358564062 -7.842521412129283 20.03983760873569
rtibia 35.751091951890736
rfoot -3.3817447562077874 -0.005967335083378877
rtoes 8.374655854972685
lowerback 0.9950992873723793 0.34855531604992446 -1.5633719756266524
upperback 2.1458973820579037 0.26330634282981125 1.7236619375084345
thorax 1.818147928718124 0.11262094928671586 2.465418837972324
lowerneck -9.676842063561724 -1.1961894912086626 -2.523451818231477
upperneck 28.677982282652202 -2.001331713567708 2.825282866066865
head 11.010780366114297 -0.7104233889941526 1.1649073205609457
lclavicle -1.4217802299061113e-15 6.718047356950199e-16
lhumerus -19.44076611728608 -5.8826483034480095 89.33370416239639
lradius 26.584445738534292
lwrist 15.799110179617045
lhand -24.079177878883016 -9.072990413792251
lfingers 7.125019999999999
lthumb 2.4007333249723057 20.899135413685777
rclavicle -1.4217802299061113e-15 6.718047356950199e-16
rhumerus -21.498340508200144 -7.774723786833998 -82.7540978679179
rradius 30.59297161767537
rwrist 35.224118600607305
rhand -19.415380914417906 -26.753104611484467
rfingers 7.125019999999999
rthumb 6.9045383549919075 -56.57933865918033
56
root 0.370765163231174 17.70293314584936 9.181871528337455 -2.408514497297931 1.508844181314685 -1.7607558971530322
lfemur -19.684093996383453 8.172175970167356 -16.203511232133533
ltibia 37.47544927803174
lfoot -5.980991925503502 1.856969378802508
ltoes -12.8542163316874
rfemur -18.571934749191115 -7.953575810197576 20.084970963506954
rtibia 39.99572832993755
rfoot -9.562846833338714 -0.1450050794438158
rtoes 5.196596484985643
lowerback 0.9754294485616435 0.49176849254720034 -1.2341469790457589
upperback 1.8654836796334062 0.4739010802589438 1.7415316364994065
thorax 1.5371628791284757 0.2348975136144908 2.342816549935783
lowerneck -10.25193961320835 -1.2787984628697167 -2.444411267220873
upperneck 29.400831310998427 -2.137262105411267 2.887592865548752
head 11.451438110378446 -0.7510033607229792 1.1579683863460768
lclavicle -1.477217384504811e-15 5.979750007872251e-16
lhumerus -21.53684301857975 -0.9530248921208022 88.08636070232464
lradius 24.98690854419897
lwrist 12.82846809791781
lhand -24.602550228947432 -8.861943552510079
lfingers 7.125019999999999
lthumb 1.8953819748595184 21.11132825661303
rclavicle -1.477217384504811e-15 5.979750007872251e-16
rhumerus -21.979863425772677 -9.36192621509154 -82.36667775864457
rradius 30.240453892496603
rwrist 35.724486349964295
rhand -19.394708921159367 -27.249880087534113
rfingers 7.125019999999999
rthumb 6.924496297534091 -57.096937515703615
57
root 0.38855420233005683 17.46495027356044 10.322222109435499 -1.9754513307307775 1.3045078530978493 -1.7746501731211581
lfemur -19.316263891777545 7.973944732832529 -16.215822265484878
ltibia 38.627043213449596
lfoot -9.438437589806606 3.513598223051603
ltoes -15.035225424439616
rfemur -18.135495128175023 -7.603433930321787 20.084510386434182
rtibia 41.08146747838244
rfoot -13.561250612295012 -0.3480366771281731
rtoes 4.0244425178510514
lowerback 0.6601522326021763 0.5517683169259395 -0.8870808863413171
upperback 1.5133291772407198 0.5759839585174464 1.7528597850041119
thorax 1.5108693694525774 0.30488212618790617 2.207199986927256
lowerneck -10.571897320996273 -1.2683916699926363 -2.3263691307473993
upperneck 29.807197685768905 -2.1178360485136163 2.8385910198649853
head 11.69082640128352 -0.7410761287922367 1.1254612563485304
lclavicle -1.4311784613108415e-15 6.589023977010931e-16
lhumerus -24.09452281017855 2.814543380173951 86.85959479773565
lradius 23.700872993161813
lwrist 10.035922920761763
lhand -24.816622533669204 -8.25342069981735
lfingers 7.125019999999999
lthumb 1.6886716980062653 21.715319361166728
rclavicle -1.4311784613108417e-15 6.589023977010931e-16
rhumerus -22.598578642580357 -10.256588074966526 -81.9316360094685
rradius 30.518447500611796
rwrist 35.7432555684069
rhand -19.29427339645601 -27.570511522482967
rfingers 7.125019999999999
rthumb 7.021409058068022 -57.434397869224476
58
root 0.4122861496679926 17.407768743024228 11.435465429371293 -0.8444585489856955 1.047559600579718 -1.717875765553227
lfemur -18.789930882898382 7.90461328888376 -16.458266620104364
ltibia 37.25756843389505
lfoot -11.40440616634847 4.304329973730528
ltoes -15.855042828789042
rfemur -17.677010903525456 -7.1407775131726705 19.960147410954985
rtibia 39.56437112052847
rfoot -15.741478248952966 -0.18212696604809997
rtoes 4.023364249218247
lowerback 0.14850234491876768 0.5719335110968845 -0.6511661747861786
upperback 1.1110288940523112 0.6298750690253796 1.707723119036105
thorax 1.4304531572380275 0.34257052014825173 2.0627852440422205
lowerneck -10.857983988816981 -1.2275624942844137 -2.221814005160388
upperneck 30.03059246233125 -2.0458107683742717 2.7865103046717037
head 11.833750224888869 -0.7137641843013652 1.100697161838447
lclavicle -1.470718811353607e-15 6.06601568609554e-16
lhumerus -27.212286003529154 5.929719143157971 85.25999835453884
lradius 21.966264997393147
lwrist 6.558395033512192
lhand -24.621325059764608 -7.391917016622207
lfingers 7.125019999999999
lthumb 1.8772693890203966 22.56886703086871
rclavicle -1.470718811353607e-15 6.06601568609554e-16
rhumerus -23.587001949745854 -11.209092146702158 -81.38610719854748
rradius 30.444598867873232
rwrist 35.75294760314993
rhand -19.12507927006873 -27.68778588017715
rfingers 7.125019999999999
rthumb 7.184651480025674 -57.55785826504515
59
root 0.4365985731961637 17.47272201123523 11.953238543248965 1.0585008023142883 0.6903048600337455 -1.6150937312296814
lfemur -18.03278442390081 7.904243530540489 -16.763729480174696
ltibia 34.23456533760827
lfoot -12.210577755409709 4.86307316638097
ltoes -15.125814902138561
rfemur -17.16542661692165 -6.307373544890558 19.77776709939204
rtibia 36.56277225075584
rfoot -16.66829538629265 0.14173537800749436
rtoes 5.278233686154936
lowerback -0.3658792299504553 0.5234256004405226 -0.5825539197211419
upperback 0.8701405311501722 0.5805674610636979 1.6324333864476461
thorax 1.5174399284901954 0.3237154386552154 1.9597922379386228
lowerneck -11.000244085841127 -1.1299675886328935 -2.1038472222321203
upperneck 29.723629442668177 -1.8683711210047362 2.6509245249714093
head 11.719981531690236 -0.6523588993511363 1.0556947598846234
lclavicle -1.4905835975836762e-15 5.804242341466352e-16
lhumerus -29.40712893970499 7.399223787052037 83.76060445228025
lradius 20.412872394645895
lwrist 3.7886996177792533
lhand -24.247496528208405 -6.569489671843135
lfingers 7.125019999999999
lthumb 2.2382204918427404 23.37916866924204
rclavicle -1.490583597583676e-15 5.804242341466352e-16
rhumerus -24.2466809723498 -12.461427429146854 -80.69630451509262
rradius 29.744575568883175
rwrist 36.26923766582407
rhand -18.96304111060896 -27.790587886514817
rfingers 7.125019999999999
rthumb 7.3409542798520135 -57.66166345153429
60
root 0.4574799559334908 17.530212437819152 12.309623012492114 2.4928553316252167 0.3073574230278594 -1.54338551547989
lfemur -17.42502094463793 8.07035812448439 -17.08914495110227
ltibia 30.343209802667605
lfoot -12.350496696860276 4.803858451192307
ltoes -13.708628246717057
rfemur -16.984383267870594 -5.497941178192818 19.555165160280165
rtibia 32.87768335823118
rfoot -16.65848589151957 0.7936551390220181
rtoes 7.066659290235784
lowerback -0.8967543024176038 0.49311525487143626 -0.5384800541657202
upperback 0.8348676580490455 0.5477395514257148 1.5084218339637558
thorax 1.728909584477742 0.29771572333204455 1.8198087624333732
lowerneck -11.051703747800518 -1.0221181754749322 -2.0303599806991888
upperneck 29.591512804024777 -1.6863045865347874 2.586367460528945
head 11.655083224594838 -0.5897754700960953 1.0362140557557182
lclavicle -1.6251282950744907e-15 4.018551216605597e-16
lhumerus -32.39481143881191 7.704516096656564 82.41728659148369
lradius 19.126502647140192
lwrist 1.4000048468513446
lhand -23.661153053004725 -5.68042952877586
lfingers 7.125019999999999
lthumb 2.8043553310184532 24.254138459975184
rclavicle -1.6251282950744907e-15 4.018551216605597e-16
rhumerus -25.667107729892408 -14.959598768511471 -79.53202730290666
rradius 28.002117593126382
rwrist 37.36991107771868
rhand -18.71145226284719 -27.81120814455852
rfingers 7.125019999999999
rthumb 7.583645440615738 -57.674688830642495
61
root 0.4697156531352564 17.563216406194222 12.41792779275174 4.148524143347523 -0.047892222715954724 -1.4942631141908784
lfemur -17.468226062913384 8.150318795812948 -17.360209173047565
ltibia 27.199474660827253
lfoot -12.442258521319214 4.857301272233745
ltoes -12.509436608334939
rfemur -17.305689550286527 -4.671053007396477 19.411186472872117
rtibia 29.831420177169377
rfoot -16.70178163589575 1.027123726024385
rtoes 8.26919124459898
lowerback -1.131335677155238 0.5382332634783413 -0.6199138624032197
upperback 0.9310784891167385 0.5958312950800171 1.409199612748674
thorax 1.805371625187144 0.3191692584590488 1.7386403069996088
lowerneck -11.318747744997054 -0.9756623515361004 -1.961416804170344
upperneck 28.9558407897009 -1.5932000134903948 2.491383244784926
head 11.440043505335641 -0.5586253882216557 1.0027998353247982
lclavicle -1.837678586081576e-15 1.194747623553713e-16
lhumerus -34.40361970316015 7.345150515567251 81.47587152277355
lradius 17.886695164230073
lwrist -0.7360522177978304
lhand -23.119315936981263 -5.062790477075409
lfingers 7.125019999999999
lthumb 3.3275014243322647 24.85955662338126
rclavicle -1.837678586081576e-15 1.194747623553713e-16
rhumerus -26.736541830238263 -18.132647150055867 -78.46409383356153
rradius 25.5392593941926
rwrist 38.92223199994209
rhand -18.421509224011892 -27.948193337439932
rfingers 7.125019999999999
rthumb 7.863316276310149 -57.8032155911283
